<svg height="480pt" viewBox="-96 0 480 480" width="480pt" xmlns="http://www.w3.org/2000/svg"><path d="m248 8h-208c-17.671875 0-32 14.328125-32 32v16h272v-16c0-17.671875-14.328125-32-32-32zm0 0" fill="#9bc9ff"/><path d="m8 440c0 17.671875 14.328125 32 32 32h208c17.671875 0 32-14.328125 32-32v-16h-272zm0 0" fill="#9bc9ff"/><path d="m112 344h16v16h32v-16h16v-47.398438h-64zm0 0" fill="#9bc9ff"/><path d="m223.199219 188.144531c-5.398438-38.160156-37.238281-67.042969-75.738281-68.714843-38.503907-1.671876-72.726563 24.34375-81.414063 61.890624-8.6875 37.546876 10.628906 75.949219 45.953125 91.359376v23.320312h64v-23.320312c32.933594-14.378907 52.238281-48.953126 47.199219-84.535157zm0 0" fill="#9bc9ff"/><g fill="#1e81ce"><path d="m248 0h-208c-22.082031.0273438-39.9726562 17.917969-40 40v400c.0273438 22.082031 17.917969 39.972656 40 40h208c22.082031-.027344 39.972656-17.917969 40-40v-400c-.027344-22.082031-17.917969-39.9726562-40-40zm-232 64h256v352h-256zm24-48h208c13.253906 0 24 10.746094 24 24v8h-256v-8c0-13.253906 10.746094-24 24-24zm208 448h-208c-13.253906 0-24-10.746094-24-24v-8h256v8c0 13.253906-10.746094 24-24 24zm0 0"/><path d="m112 40h8c4.417969 0 8-3.582031 8-8s-3.582031-8-8-8h-8c-4.417969 0-8 3.582031-8 8s3.582031 8 8 8zm0 0"/><path d="m144 40h32c4.417969 0 8-3.582031 8-8s-3.582031-8-8-8h-32c-4.417969 0-8 3.582031-8 8s3.582031 8 8 8zm0 0"/><path d="m160 440h-32c-4.417969 0-8 3.582031-8 8s3.582031 8 8 8h32c4.417969 0 8-3.582031 8-8s-3.582031-8-8-8zm0 0"/><path d="m231.199219 187.65625c-5.847657-41.300781-39.890625-72.824219-81.519531-75.480469-41.628907-2.660156-79.40625 24.273438-90.460938 64.496094-11.058594 40.21875 7.644531 82.679687 44.78125 101.671875v73.65625h16v16h48v-16h16v-73.648438c33.601562-16.933593 52.609375-53.457031 47.199219-90.695312zm-79.199219 148.34375v16h-16v-16h-16v-31.40625h48v31.40625zm20.800781-70.054688-4.800781 2.101563v20.546875h-48v-20.546875l-4.800781-2.101563c-31.773438-13.882812-49.140625-48.4375-41.324219-82.21875 7.820312-33.777343 38.605469-57.1875 73.246094-55.695312s63.300781 27.464844 68.183594 61.792969c4.691406 32.066406-12.742188 63.289062-42.503907 76.121093zm0 0"/><path d="m144 144v16c22.082031.027344 39.972656 17.917969 40 40h16c-.039062-30.910156-25.089844-55.960938-56-56zm0 0"/></g></svg>