<svg xmlns="http://www.w3.org/2000/svg" height="511pt" version="1.1" viewBox="-105 1 511 511.99999" width="511pt">
<g id="surface1">
<path d="M 0.5 459.035156 L 300.636719 459.035156 L 300.636719 52.964844 L 0.5 52.964844 Z M 160.746094 124.160156 C 209.171875 129.8125 243.847656 173.648438 238.195312 222.074219 C 234.554688 253.25 214.636719 280.148438 185.878906 292.722656 L 185.878906 370.757812 L 168.222656 370.757812 L 168.222656 388.414062 L 132.914062 388.414062 L 132.914062 370.757812 L 115.257812 370.757812 L 115.257812 292.722656 C 70.597656 273.167969 50.246094 221.113281 69.800781 176.453125 C 85.347656 140.945312 122.238281 119.730469 160.746094 124.160156 Z M 160.746094 124.160156 " style=" stroke:none;fill-rule:nonzero;fill:rgb(100%,96.862745%,83.921569%);fill-opacity:1;" />
<path d="M 265.328125 0 L 35.8125 0 C 16.308594 0 0.5 15.808594 0.5 35.308594 L 0.5 52.964844 L 300.636719 52.964844 L 300.636719 35.308594 C 300.636719 15.808594 284.828125 0 265.328125 0 Z M 265.328125 0 " style=" stroke:none;fill-rule:nonzero;fill:rgb(42.745098%,43.137255%,44.313725%);fill-opacity:1;" />
<path d="M 0.5 476.691406 C 0.5 496.191406 16.308594 512 35.808594 512 L 265.328125 512 C 284.828125 512 300.636719 496.191406 300.636719 476.691406 L 300.636719 459.035156 L 0.5 459.035156 Z M 0.5 476.691406 " style=" stroke:none;fill-rule:nonzero;fill:rgb(42.745098%,43.137255%,44.313725%);fill-opacity:1;" />
<path d="M 79.949219 459.035156 L 300.636719 459.035156 L 300.636719 238.34375 C 300.707031 360.160156 202.011719 458.964844 80.195312 459.035156 C 80.113281 459.035156 80.03125 459.035156 79.949219 459.035156 Z M 79.949219 459.035156 " style=" stroke:none;fill-rule:nonzero;fill:rgb(100%,92.156863%,60%);fill-opacity:1;" />
<path d="M 115.257812 370.757812 L 132.914062 370.757812 L 132.914062 388.414062 L 168.222656 388.414062 L 168.222656 370.757812 L 185.878906 370.757812 L 185.878906 309.628906 L 115.257812 309.628906 Z M 115.257812 370.757812 " style=" stroke:none;fill-rule:nonzero;fill:rgb(42.745098%,43.137255%,44.313725%);fill-opacity:1;" />
<path d="M 115.257812 292.0625 L 115.257812 317.792969 L 185.878906 317.792969 L 185.878906 292.0625 C 230.5625 272.558594 250.976562 220.527344 231.476562 175.84375 C 211.972656 131.160156 159.941406 110.746094 115.257812 130.25 C 70.574219 149.75 50.160156 201.78125 69.664062 246.464844 C 78.566406 266.871094 94.855469 283.15625 115.257812 292.0625 Z M 203.535156 211.199219 C 203.5 181.960938 179.808594 158.269531 150.570312 158.234375 C 179.808594 158.269531 203.5 181.960938 203.535156 211.199219 Z M 203.535156 211.199219 " style=" stroke:none;fill-rule:nonzero;fill:rgb(100%,80.392157%,0%);fill-opacity:1;" />
<path d="M 115.257812 35.308594 L 124.085938 35.308594 C 128.960938 35.308594 132.914062 31.359375 132.914062 26.484375 C 132.914062 21.605469 128.960938 17.65625 124.085938 17.65625 L 115.257812 17.65625 C 110.382812 17.65625 106.429688 21.605469 106.429688 26.484375 C 106.429688 31.359375 110.382812 35.308594 115.257812 35.308594 Z M 115.257812 35.308594 " style=" stroke:none;fill-rule:nonzero;fill:rgb(94.509804%,94.901961%,94.901961%);fill-opacity:1;" />
<path d="M 150.570312 35.308594 L 185.878906 35.308594 C 190.753906 35.308594 194.707031 31.359375 194.707031 26.484375 C 194.707031 21.605469 190.753906 17.65625 185.878906 17.65625 L 150.570312 17.65625 C 145.695312 17.65625 141.742188 21.605469 141.742188 26.484375 C 141.742188 31.359375 145.695312 35.308594 150.570312 35.308594 Z M 150.570312 35.308594 " style=" stroke:none;fill-rule:nonzero;fill:rgb(94.509804%,94.901961%,94.901961%);fill-opacity:1;" />
<path d="M 168.222656 476.691406 L 132.914062 476.691406 C 128.039062 476.691406 124.085938 480.640625 124.085938 485.515625 C 124.085938 490.394531 128.039062 494.34375 132.914062 494.34375 L 168.222656 494.34375 C 173.101562 494.34375 177.050781 490.394531 177.050781 485.515625 C 177.050781 480.640625 173.097656 476.691406 168.222656 476.691406 Z M 168.222656 476.691406 " style=" stroke:none;fill-rule:nonzero;fill:rgb(94.509804%,94.901961%,94.901961%);fill-opacity:1;" />
<path d="M 150.570312 150.070312 L 150.570312 167.722656 C 174.933594 167.753906 194.679688 187.496094 194.707031 211.863281 L 212.363281 211.863281 C 212.316406 177.753906 184.679688 150.113281 150.570312 150.070312 Z M 150.570312 150.070312 " style=" stroke:none;fill-rule:nonzero;fill:rgb(94.509804%,94.901961%,94.901961%);fill-opacity:1;" />
</g>
</svg>