<?xml version="1.0" encoding="iso-8859-1"?>
<!-- Generator: Adobe Illustrator 19.0.0, SVG Export Plug-In . SVG Version: 6.00 Build 0)  -->
<svg version="1.1" id="Layer_1" xmlns="http://www.w3.org/2000/svg" xmlns:xlink="http://www.w3.org/1999/xlink" x="0px" y="0px"
	 viewBox="0 0 512 512" style="enable-background:new 0 0 512 512;" xml:space="preserve">
<path style="fill:#FFDB6C;" d="M397.68,116.767h-69.03c-4.009-17.172-10.847-33.199-19.992-46.936h89.023
	c19.284,0,34.916-15.632,34.916-34.916S416.964,0,397.68,0H114.32C95.036,0,79.404,15.632,79.404,34.916
	s15.632,34.916,34.916,34.916h66.742c32.61,0,60.819,19.461,73.964,46.936H114.32c-19.284,0-34.916,15.632-34.916,34.916
	s15.632,34.916,34.916,34.916h140.808c-13.1,27.475-41.369,46.936-74.066,46.936H114.32c-19.284,0-34.916,15.06-34.916,34.343
	c0,10.161,4.344,19.019,11.273,25.4l187.662,207.3c6.893,7.618,16.379,11.421,25.903,11.421c8.352,0,16.732-3.014,23.413-9.059
	c14.301-12.937,15.406-35.035,2.469-49.334L192.774,302.342c66.438-5.137,121.029-53.925,135.931-115.743h68.975
	c19.284,0,34.916-15.632,34.916-34.916S416.964,116.767,397.68,116.767z"/>
<g>
	<path style="fill:#FFB04C;" d="M410.845,11.001c-0.069,19.351-16.274,34.79-35.626,34.79h-59.137
		c-12.585,0-21.064,12.753-16.323,24.41c1.312,3.228,2.519,6.524,3.613,9.879c2.445,7.501,9.34,12.646,17.229,12.646h0.275
		c-3.415-8.134-7.507-15.82-12.218-22.896h88.286c19.082,0,35.196-15.002,35.642-34.08c0.359-15.403-9.258-28.608-22.843-33.61
		C410.473,4.972,410.855,7.94,410.845,11.001z"/>
	<path style="fill:#FFB04C;" d="M114.32,69.832h66.742c18.183,0,34.992,6.055,48.589,16.171
		c-14.288-23.869-40.462-40.211-70.34-40.211H92.569c-4.24,0-8.303-0.757-12.064-2.142C84.383,58.707,98.053,69.832,114.32,69.832z"
		/>
	<path style="fill:#FFB04C;" d="M409.744,118.909c0.729,2.83,1.112,5.799,1.101,8.859c-0.069,19.351-16.274,34.79-35.626,34.79
		h-52.071c-9.209,0-17.42,5.801-20.488,14.485c-19.365,54.817-70.482,96.53-131.637,101.259l21.823,24.033
		c66.405-5.168,120.962-53.941,135.859-115.737h68.239c19.082,0,35.196-15.002,35.642-34.08
		C432.946,137.116,423.328,123.911,409.744,118.909z"/>
	<path style="fill:#FFB04C;" d="M309.618,431.023c11.602,14.307,10.111,35.372-3.713,47.878c-6.681,6.044-15.061,9.059-23.413,9.059
		c-9.523,0-19.011-3.802-25.903-11.421l21.751,24.04C285.233,508.197,294.72,512,304.243,512c8.352,0,16.732-3.014,23.413-9.059
		c14.301-12.937,15.406-35.035,2.469-49.334L309.618,431.023z"/>
	<path style="fill:#FFB04C;" d="M216.172,186.392c8.956-8.644,2.663-23.833-9.784-23.833H92.569c-4.24,0-8.303-0.757-12.064-2.142
		c3.877,15.057,17.547,26.182,33.814,26.182h101.637C216.028,186.53,216.1,186.462,216.172,186.392z"/>
</g>
<g>
</g>
<g>
</g>
<g>
</g>
<g>
</g>
<g>
</g>
<g>
</g>
<g>
</g>
<g>
</g>
<g>
</g>
<g>
</g>
<g>
</g>
<g>
</g>
<g>
</g>
<g>
</g>
<g>
</g>
</svg>
