<?xml version="1.0" encoding="iso-8859-1"?>
<!-- Generator: Adobe Illustrator 19.0.0, SVG Export Plug-In . SVG Version: 6.00 Build 0)  -->
<svg version="1.1" id="Capa_1" xmlns="http://www.w3.org/2000/svg" xmlns:xlink="http://www.w3.org/1999/xlink" x="0px" y="0px"
	 viewBox="0 0 512 512" style="enable-background:new 0 0 512 512;" xml:space="preserve">
<path style="fill:#FDE180;" d="M256,0c-61.757,0-112,50.243-112,112s50.243,112,112,112s112-50.243,112-112S317.757,0,256,0z"/>
<path style="fill:#FCDA60;" d="M256,24c-48.523,0-88,39.477-88,88s39.477,88,88,88s88-39.477,88-88S304.523,24,256,24z"/>
<path style="fill:#FFFFFF;" d="M289.4,96c4.418,0,8-3.582,8-8v-8c0-17.645-14.355-32-32-32h-0.5V32c0-4.142-3.358-7.5-7.5-7.5
	s-7.5,3.358-7.5,7.5v16.173C231.686,49.939,217.4,65.331,217.4,84c0,19.851,16.149,36,36,36h8c11.028,0,20,8.972,20,20
	s-8.972,20-20,20h-12c-8.822,0-16-7.178-16-16c0-4.418-3.582-8-8-8s-8,3.582-8,8c0,17.645,14.355,32,32,32h0.5v16
	c0,4.142,3.358,7.5,7.5,7.5s7.5-3.358,7.5-7.5v-16.173c18.214-1.766,32.5-17.158,32.5-35.827c0-19.851-16.149-36-36-36h-8
	c-11.028,0-20-8.972-20-20s8.972-20,20-20h12c8.822,0,16,7.178,16,16v8C281.4,92.418,284.982,96,289.4,96z"/>
<path style="fill:#F4F6F7;" d="M376,224H136c-26.467,0-48,21.533-48,48v232c0,4.418,3.582,8,8,8h320c4.418,0,8-3.582,8-8V272
	C424,245.533,402.467,224,376,224z"/>
<polygon style="fill:#FD7959;" points="280,392 232,392 240,256 272,256 "/>
<polygon style="fill:#FD947A;" points="272,256 240,256 232,224 280,224 "/>
<path style="fill:#6B7B8B;" d="M376,224h-64c-3.299,0-6.26,2.025-7.456,5.101L256,353.928l-48.544-124.827
	C206.26,226.025,203.299,224,200,224h-64c-26.467,0-48,21.533-48,48v232c0,4.418,3.582,8,8,8h320c4.418,0,8-3.582,8-8V272
	C424,245.533,402.467,224,376,224z"/>
<g>
	<path style="fill:#55697A;" d="M120,504V272c0-26.467,21.533-48,48-48h-32c-26.467,0-48,21.533-48,48v232c0,4.418,3.582,8,8,8h32
		C123.582,512,120,508.418,120,504z"/>
	<circle style="fill:#55697A;" cx="256" cy="407.5" r="7.5"/>
	<circle style="fill:#55697A;" cx="256" cy="439.5" r="7.5"/>
	<circle style="fill:#55697A;" cx="256" cy="470.5" r="7.5"/>
</g>
<g>
	<path style="fill:#607282;" d="M352,512V336c0-4.418-3.582-8-8-8h-8c-4.418,0-8,3.582-8,8v176H352z"/>
	<path style="fill:#607282;" d="M160,512V336c0-4.418,3.582-8,8-8h8c4.418,0,8,3.582,8,8v176H160z"/>
</g>
<g>
</g>
<g>
</g>
<g>
</g>
<g>
</g>
<g>
</g>
<g>
</g>
<g>
</g>
<g>
</g>
<g>
</g>
<g>
</g>
<g>
</g>
<g>
</g>
<g>
</g>
<g>
</g>
<g>
</g>
</svg>
